<svg width="186" height="36" viewBox="0 0 186 36" fill="none" xmlns="http://www.w3.org/2000/svg">
<g id="Frame" clip-path="url(#clip0_1_275)">
<g id="Group">
<g id="Group_2">
<path id="Vector" d="M0.109375 35.2984C0.109375 16.0128 15.7215 0.400635 35.0071 0.400635L0.109375 35.2984Z" fill="#48D3FF"/>
</g>
<g id="Group_3">
<path id="Vector_2" d="M10.3887 35.0794C10.3887 21.6539 21.3215 10.6772 34.7908 10.6772L10.3887 35.0794Z" fill="#FFC12E"/>
</g>
<g id="Group_4">
<path id="Vector_3" d="M20.9238 35.0797C20.9238 27.4267 27.1337 21.2168 34.7867 21.2168L20.9238 35.0797Z" fill="#FF5636"/>
</g>
</g>
<g id="Group_5">
<path id="Vector_4" d="M59.8066 25.2404C58.757 26.0276 57.3139 26.4211 55.5209 26.4211C53.1157 26.4211 51.1915 25.5902 49.7484 23.9722C48.3489 22.3104 47.6492 20.0801 47.6492 17.1938C47.6492 14.3075 48.3489 12.0335 49.7484 10.3717C51.1478 8.70988 53.0719 7.87898 55.5209 7.87898C57.3139 7.87898 58.7133 8.3163 59.8066 9.1472C60.8561 9.9781 61.5559 11.1151 61.9057 12.5145H66.0165C65.5354 10.0218 64.3984 8.05391 62.6054 6.69823C60.8124 5.29882 58.4946 4.59912 55.6521 4.59912C53.2469 4.59912 51.1915 5.1239 49.4422 6.17346C47.693 7.22301 46.3373 8.70988 45.4189 10.5903C44.4568 12.4708 44.0195 14.6574 44.0195 17.1501C44.0195 19.6428 44.5006 21.7856 45.4189 23.6661C46.381 25.5465 47.693 27.0334 49.4422 28.0829C51.1915 29.1325 53.2469 29.6573 55.6521 29.6573C58.4946 29.6573 60.8124 28.9576 62.6054 27.6019C64.3984 26.2462 65.5354 24.3658 66.0165 21.9605H61.9057C61.5996 23.4037 60.8999 24.4532 59.8066 25.2404Z" fill="white"/>
<path id="Vector_5" d="M81.8922 19.031C83.5978 18.5062 84.8223 17.6315 85.6094 16.4071C86.3966 15.1826 86.7902 13.8269 86.7902 12.2963C86.7902 10.9406 86.4841 9.71614 85.8718 8.62285C85.2596 7.52956 84.3412 6.65493 83.1167 5.99896C81.8922 5.34299 80.3179 5.03687 78.3937 5.03687H70.041V29.3079H73.7145V8.1418H78.1751C79.8806 8.1418 81.1051 8.53539 81.8922 9.32255C82.6794 10.1097 83.0293 11.1155 83.0293 12.4275C83.0293 13.7394 82.6357 14.789 81.8485 15.5762C81.0613 16.4071 79.8369 16.8006 78.1751 16.8006H76.6882L78.0439 19.5557L79.7057 22.9668L82.7669 29.3079H87.0526L81.8922 19.031Z" fill="white"/>
<path id="Vector_6" d="M116.219 5.03687V29.3079H112.546V11.3779L107.079 21.961L105.111 25.8531L103.668 28.6082L102.269 25.8531L100.476 22.3983L94.7906 11.4217V29.3079H91.1172V5.03687H95.4466L103.668 21.2175L111.89 5.03687H116.219Z" fill="white"/>
<path id="Vector_7" d="M136.554 5.03687V15.445H124.791V5.03687H121.117V29.3079H124.791V18.4624H136.554V29.3079H140.228V5.03687H136.554Z" fill="white"/>
<path id="Vector_8" d="M159.909 5.03687V20.2117C159.909 22.3545 159.384 23.8852 158.378 24.891C157.373 25.8968 156.017 26.3779 154.268 26.3779C152.518 26.3779 151.163 25.8968 150.157 24.891C149.151 23.8852 148.626 22.3545 148.626 20.2117V5.03687H144.953V20.168C144.953 22.3545 145.347 24.1475 146.177 25.547C147.008 26.9464 148.102 27.9959 149.501 28.6956C150.9 29.3953 152.475 29.7014 154.18 29.7014C155.886 29.7014 157.46 29.3516 158.903 28.6956C160.346 28.0396 161.44 26.9464 162.314 25.547C163.145 24.1475 163.583 22.3545 163.583 20.168V5.03687H159.909Z" fill="white"/>
<path id="Vector_9" d="M185.056 19.992C184.618 19.1611 184.05 18.4614 183.35 17.8929C182.607 17.3244 181.776 16.9745 180.858 16.7996C182.038 16.4935 183.044 15.8375 183.875 14.9629C184.706 14.0445 185.1 12.82 185.1 11.2894C185.1 9.49644 184.444 8.0533 183.175 6.87255C181.863 5.6918 179.983 5.12329 177.447 5.12329H168.307V29.3943H177.753C179.458 29.3943 180.901 29.0882 182.082 28.5197C183.263 27.9512 184.181 27.164 184.793 26.1582C185.406 25.1523 185.712 24.0153 185.712 22.7908C185.712 21.6975 185.493 20.8229 185.056 19.992ZM171.98 8.00957H176.922C178.409 8.00957 179.502 8.35942 180.245 9.0154C180.989 9.67137 181.339 10.5897 181.339 11.7268C181.339 12.8638 180.945 13.7821 180.245 14.4381C179.502 15.0941 178.452 15.4439 177.009 15.4439H171.98V8.00957ZM180.726 25.2398C179.895 25.9395 178.758 26.2894 177.272 26.2894H172.024V18.2865H177.228C178.671 18.2865 179.852 18.6363 180.683 19.3798C181.557 20.1232 181.951 21.0853 181.951 22.3535C181.951 23.578 181.557 24.5838 180.726 25.2398Z" fill="white"/>
</g>
</g>
<defs>
<clipPath id="clip0_1_275">
<rect width="185.596" height="34.8977" fill="white" transform="translate(0.113281 0.400635)"/>
</clipPath>
</defs>
</svg>
